<svg width="326" height="297" viewBox="0 0 326 297" fill="none" xmlns="http://www.w3.org/2000/svg">
<path d="M250.463 39.9616C283.502 60.4583 318.194 83.6119 324.802 112.08C331.41 140.547 309.521 174.708 287.632 207.731C265.744 240.753 243.855 272.637 211.228 287.44C179.014 301.864 136.476 298.827 97.6542 285.922C58.8326 273.017 24.1409 249.863 9.27307 219.877C-5.59478 189.512 -0.638837 151.934 10.5121 118.532C21.2499 85.5098 38.1828 56.6626 63.3755 35.0272C88.5683 13.3918 122.021 -1.41137 154.648 0.106901C186.861 1.62517 217.836 19.4649 250.463 39.9616Z" fill="url(#paint0_linear_6_38)"/>
<defs>
<linearGradient id="paint0_linear_6_38" x1="0" y1="297" x2="295.716" y2="-27.5903" gradientUnits="userSpaceOnUse">
<stop stop-color="#7000FF"/>
<stop offset="1" stop-color="#9E58F8"/>
</linearGradient>
</defs>
</svg>
