<svg width="440" height="299" viewBox="0 0 440 299" fill="none" xmlns="http://www.w3.org/2000/svg">
<path d="M423.279 16.8096C451.288 37.3979 440.085 76.3686 419.078 102.839C397.371 128.942 365.861 142.913 370.763 171.222C374.964 199.531 415.577 242.178 402.973 267.913C391.069 293.281 325.949 302.105 266.43 298.061C206.912 294.016 152.995 277.472 117.284 255.781C80.8722 234.09 63.3668 207.619 38.8591 179.31C13.6512 151.001 -17.1584 121.222 11.5506 109.825C40.2595 98.4275 129.187 105.78 181.004 89.2363C232.12 72.6921 246.824 32.2508 287.437 13.1331C328.05 -5.98465 395.271 -3.77876 423.279 16.8096Z" fill="url(#paint0_linear_7_46)"/>
<defs>
<linearGradient id="paint0_linear_7_46" x1="0" y1="299" x2="277.995" y2="-110.09" gradientUnits="userSpaceOnUse">
<stop stopColor="#7000FF"/>
<stop offset="1" stopColor="#9E58F8"/>
</linearGradient>
</defs>
</svg>
