<svg width="315" height="303" viewBox="0 0 315 303" fill="none" xmlns="http://www.w3.org/2000/svg">
<path d="M244.091 2.15949C268.977 9.03748 285.567 35.7852 298.009 62.1509C310.452 88.8986 319.162 115.264 312.94 138.191C306.304 161.118 284.737 180.605 271.88 206.589C258.608 232.19 254.46 264.287 235.796 283.011C217.547 301.352 185.196 306.32 156.163 300.97C127.545 295.238 101.831 279.19 86.8994 258.938C71.9682 238.686 66.9912 214.231 52.06 193.979C37.5436 173.727 12.6584 157.679 3.94854 137.045C-5.17606 116.028 1.87477 90.427 21.3682 78.1995C41.2764 65.972 74.042 66.7362 98.0978 59.094C122.154 51.4518 137.499 35.4031 161.555 21.265C186.026 7.12693 219.206 -5.10061 244.091 2.15949Z" fill="url(#paint0_linear_6_40)"/>
<defs>
<linearGradient id="paint0_linear_6_40" x1="0" y1="303" x2="302.772" y2="-11.7626" gradientUnits="userSpaceOnUse">
<stop stop-color="#7000FF"/>
<stop offset="1" stop-color="#9E58F8"/>
</linearGradient>
</defs>
</svg>
