<svg width="60" height="60" viewBox="0 0 60 60" fill="none" xmlns="http://www.w3.org/2000/svg">
<path d="M30 0C22.0734 0.0961784 14.4985 3.28776 8.89314 8.89314C3.28776 14.4985 0.0961784 22.0734 0 30C0.0961784 37.9266 3.28776 45.5015 8.89314 51.1069C14.4985 56.7122 22.0734 59.9038 30 60C37.9266 59.9038 45.5015 56.7122 51.1069 51.1069C56.7122 45.5015 59.9038 37.9266 60 30C59.9038 22.0734 56.7122 14.4985 51.1069 8.89314C45.5015 3.28776 37.9266 0.0961784 30 0ZM47.1429 32.1429H32.1429V47.1429H27.8571V32.1429H12.8571V27.8571H27.8571V12.8571H32.1429V27.8571H47.1429V32.1429Z" fill="#7000FF"/>
</svg>
