<svg width="22" height="22" viewBox="0 0 22 22" fill="none" xmlns="http://www.w3.org/2000/svg">
<path d="M21.5365 19.315C21.8316 19.6101 21.9974 20.0104 21.9974 20.4277C21.9974 20.8451 21.8316 21.2453 21.5365 21.5404C21.2414 21.8355 20.8411 22.0013 20.4238 22.0013C20.0065 22.0013 19.6062 21.8355 19.3111 21.5404L11 13.2267L2.68626 21.5378C2.39116 21.8329 1.99092 21.9987 1.57358 21.9987C1.15624 21.9987 0.755993 21.8329 0.46089 21.5378C0.165787 21.2427 4.39738e-09 20.8425 0 20.4251C-4.39738e-09 20.0078 0.165787 19.6075 0.46089 19.3124L8.77463 11.0013L0.463508 2.68757C0.168405 2.39247 0.00261814 1.99223 0.00261815 1.57489C0.00261815 1.15755 0.168405 0.757302 0.463508 0.462199C0.758611 0.167096 1.15886 0.00130883 1.5762 0.00130882C1.99353 0.00130882 2.39378 0.167096 2.68888 0.462199L11 8.77594L19.3137 0.46089C19.6088 0.165787 20.0091 -6.95286e-09 20.4264 0C20.8438 6.95286e-09 21.244 0.165787 21.5391 0.46089C21.8342 0.755993 22 1.15624 22 1.57358C22 1.99092 21.8342 2.39116 21.5391 2.68626L13.2254 11.0013L21.5365 19.315Z" fill="#F3F3F3"/>
</svg>
