<svg width="65" height="65" viewBox="0 0 65 65" fill="none" xmlns="http://www.w3.org/2000/svg">
<path d="M47.7978 0.952253C47.4965 0.649865 47.1383 0.410055 46.744 0.246628C46.3496 0.0832004 45.9269 -0.000615709 45.5 3.40494e-06H19.5C19.0731 -0.000615709 18.6504 0.0832004 18.256 0.246628C17.8617 0.410055 17.5035 0.649865 17.2023 0.952253L0.952253 17.2023C0.649865 17.5035 0.410055 17.8617 0.246628 18.256C0.0832004 18.6504 -0.000615709 19.0731 3.40494e-06 19.5V45.5C3.40494e-06 46.3645 0.341253 47.19 0.952253 47.7978L17.2023 64.0478C17.5035 64.3501 17.8617 64.59 18.256 64.7534C18.6504 64.9168 19.0731 65.0006 19.5 65H45.5C46.3645 65 47.19 64.6588 47.7978 64.0478L64.0478 47.7978C64.3501 47.4965 64.59 47.1383 64.7534 46.744C64.9168 46.3496 65.0006 45.9269 65 45.5V19.5C65.0006 19.0731 64.9168 18.6504 64.7534 18.256C64.59 17.8617 64.3501 17.5035 64.0478 17.2023L47.7978 0.952253ZM35.75 48.75H29.25V42.25H35.75V48.75ZM35.75 35.75H29.25V16.25H35.75V35.75Z" fill="#F3B81A"/>
</svg>
